<mxfile host="app.diagrams.net" modified="2024-03-19T08:20:26.738Z" agent="Mozilla/5.0 (Windows NT 10.0; Win64; x64) AppleWebKit/537.36 (KHTML, like Gecko) Chrome/122.0.0.0 Safari/537.36" etag="WZMtK6u5C4fAfR98u-pr" version="24.0.5" type="device">
  <diagram name="Page-1" id="b5b7bab2-c9e2-2cf4-8b2a-24fd1a2a6d21">
    <mxGraphModel dx="1434" dy="746" grid="1" gridSize="10" guides="1" tooltips="1" connect="1" arrows="1" fold="1" page="1" pageScale="1" pageWidth="827" pageHeight="1169" background="none" math="0" shadow="0">
      <root>
        <mxCell id="0" />
        <mxCell id="1" parent="0" />
        <mxCell id="ANGODfYKvJ1DgnYOLslo-11" value="" style="swimlane;startSize=0;" parent="1" vertex="1">
          <mxGeometry x="200" y="820" width="470" height="250" as="geometry">
            <mxRectangle x="-110" y="-10" width="50" height="40" as="alternateBounds" />
          </mxGeometry>
        </mxCell>
        <mxCell id="ANGODfYKvJ1DgnYOLslo-12" value="LAN" style="text;html=1;align=center;verticalAlign=middle;whiteSpace=wrap;rounded=0;" parent="ANGODfYKvJ1DgnYOLslo-11" vertex="1">
          <mxGeometry width="60" height="30" as="geometry" />
        </mxCell>
        <mxCell id="ANGODfYKvJ1DgnYOLslo-1" value="" style="swimlane;startSize=0;" parent="ANGODfYKvJ1DgnYOLslo-11" vertex="1">
          <mxGeometry x="160" y="10" width="291" height="120" as="geometry" />
        </mxCell>
        <mxCell id="ANGODfYKvJ1DgnYOLslo-3" value="Firewall" style="rounded=1;whiteSpace=wrap;html=1;" parent="ANGODfYKvJ1DgnYOLslo-1" vertex="1">
          <mxGeometry x="29.5" y="50" width="86" height="60" as="geometry" />
        </mxCell>
        <mxCell id="ANGODfYKvJ1DgnYOLslo-4" value="Serveur DELL" style="text;html=1;align=center;verticalAlign=middle;whiteSpace=wrap;rounded=0;" parent="ANGODfYKvJ1DgnYOLslo-1" vertex="1">
          <mxGeometry x="10" width="60" height="30" as="geometry" />
        </mxCell>
        <mxCell id="ANGODfYKvJ1DgnYOLslo-8" value="Serveur Ubuntu" style="rounded=1;whiteSpace=wrap;html=1;" parent="ANGODfYKvJ1DgnYOLslo-1" vertex="1">
          <mxGeometry x="180" y="50" width="86" height="60" as="geometry" />
        </mxCell>
        <mxCell id="ANGODfYKvJ1DgnYOLslo-9" value="" style="endArrow=classic;startArrow=classic;html=1;rounded=0;entryX=0;entryY=0.5;entryDx=0;entryDy=0;exitX=1;exitY=0.5;exitDx=0;exitDy=0;" parent="ANGODfYKvJ1DgnYOLslo-1" source="ANGODfYKvJ1DgnYOLslo-3" target="ANGODfYKvJ1DgnYOLslo-8" edge="1">
          <mxGeometry width="50" height="50" relative="1" as="geometry">
            <mxPoint x="-130" y="80" as="sourcePoint" />
            <mxPoint x="-80" y="30" as="targetPoint" />
          </mxGeometry>
        </mxCell>
        <mxCell id="ANGODfYKvJ1DgnYOLslo-10" value="Ethernet virtuel" style="text;html=1;align=center;verticalAlign=middle;whiteSpace=wrap;rounded=0;" parent="ANGODfYKvJ1DgnYOLslo-1" vertex="1">
          <mxGeometry x="115.5" y="50" width="60" height="30" as="geometry" />
        </mxCell>
        <mxCell id="E41aTQHjO3BxjqyUkSKW-1" value="administration système (salle SNIR)" style="rounded=0;whiteSpace=wrap;html=1;" parent="ANGODfYKvJ1DgnYOLslo-11" vertex="1">
          <mxGeometry x="10" y="170" width="260" height="70" as="geometry" />
        </mxCell>
        <mxCell id="E41aTQHjO3BxjqyUkSKW-2" value="" style="endArrow=classic;startArrow=classic;html=1;rounded=0;entryX=0;entryY=0.5;entryDx=0;entryDy=0;exitX=0.465;exitY=-0.014;exitDx=0;exitDy=0;exitPerimeter=0;" parent="ANGODfYKvJ1DgnYOLslo-11" source="E41aTQHjO3BxjqyUkSKW-1" target="ANGODfYKvJ1DgnYOLslo-1" edge="1">
          <mxGeometry width="50" height="50" relative="1" as="geometry">
            <mxPoint x="140" y="170" as="sourcePoint" />
            <mxPoint x="200" y="120" as="targetPoint" />
            <Array as="points">
              <mxPoint x="130" y="70" />
            </Array>
          </mxGeometry>
        </mxCell>
        <mxCell id="E41aTQHjO3BxjqyUkSKW-3" value="Ethernet" style="text;html=1;align=center;verticalAlign=middle;whiteSpace=wrap;rounded=0;" parent="ANGODfYKvJ1DgnYOLslo-11" vertex="1">
          <mxGeometry x="20" y="130" width="60" height="30" as="geometry" />
        </mxCell>
        <mxCell id="E41aTQHjO3BxjqyUkSKW-5" value="" style="endArrow=classic;startArrow=classic;html=1;rounded=0;exitX=0.5;exitY=0;exitDx=0;exitDy=0;entryX=0.5;entryY=1;entryDx=0;entryDy=0;" parent="1" source="ANGODfYKvJ1DgnYOLslo-3" target="E41aTQHjO3BxjqyUkSKW-38" edge="1">
          <mxGeometry width="50" height="50" relative="1" as="geometry">
            <mxPoint x="260" y="780" as="sourcePoint" />
            <mxPoint x="560" y="770" as="targetPoint" />
            <Array as="points">
              <mxPoint x="433" y="760" />
              <mxPoint x="535" y="760" />
            </Array>
          </mxGeometry>
        </mxCell>
        <mxCell id="E41aTQHjO3BxjqyUkSKW-6" value="Ethernet" style="text;html=1;align=center;verticalAlign=middle;whiteSpace=wrap;rounded=0;" parent="1" vertex="1">
          <mxGeometry x="470" y="760" width="60" height="30" as="geometry" />
        </mxCell>
        <mxCell id="E41aTQHjO3BxjqyUkSKW-8" value="" style="swimlane;startSize=0;" parent="1" vertex="1">
          <mxGeometry x="120" y="340" width="640" height="200" as="geometry" />
        </mxCell>
        <mxCell id="E41aTQHjO3BxjqyUkSKW-9" value="étage physique" style="text;html=1;align=center;verticalAlign=middle;resizable=0;points=[];autosize=1;strokeColor=none;fillColor=none;" parent="E41aTQHjO3BxjqyUkSKW-8" vertex="1">
          <mxGeometry x="10" width="100" height="30" as="geometry" />
        </mxCell>
        <mxCell id="E41aTQHjO3BxjqyUkSKW-10" value="WiFi" style="rounded=0;whiteSpace=wrap;html=1;" parent="E41aTQHjO3BxjqyUkSKW-8" vertex="1">
          <mxGeometry x="510" y="20" width="120" height="60" as="geometry" />
        </mxCell>
        <mxCell id="E41aTQHjO3BxjqyUkSKW-12" value="smartphone" style="rounded=0;whiteSpace=wrap;html=1;" parent="E41aTQHjO3BxjqyUkSKW-8" vertex="1">
          <mxGeometry x="220" y="120" width="120" height="60" as="geometry" />
        </mxCell>
        <mxCell id="E41aTQHjO3BxjqyUkSKW-13" value="QR code" style="rounded=0;whiteSpace=wrap;html=1;" parent="E41aTQHjO3BxjqyUkSKW-8" vertex="1">
          <mxGeometry x="50" y="30" width="120" height="60" as="geometry" />
        </mxCell>
        <mxCell id="E41aTQHjO3BxjqyUkSKW-14" value="" style="endArrow=classic;startArrow=classic;html=1;rounded=0;entryX=0.5;entryY=1;entryDx=0;entryDy=0;exitX=1;exitY=0.5;exitDx=0;exitDy=0;" parent="E41aTQHjO3BxjqyUkSKW-8" source="E41aTQHjO3BxjqyUkSKW-12" target="E41aTQHjO3BxjqyUkSKW-10" edge="1">
          <mxGeometry width="50" height="50" relative="1" as="geometry">
            <mxPoint x="400" y="90" as="sourcePoint" />
            <mxPoint x="450" y="40" as="targetPoint" />
            <Array as="points">
              <mxPoint x="570" y="150" />
            </Array>
          </mxGeometry>
        </mxCell>
        <mxCell id="E41aTQHjO3BxjqyUkSKW-15" value="" style="endArrow=classic;startArrow=classic;html=1;rounded=0;exitX=1;exitY=0.5;exitDx=0;exitDy=0;entryX=0;entryY=0.5;entryDx=0;entryDy=0;" parent="E41aTQHjO3BxjqyUkSKW-8" source="E41aTQHjO3BxjqyUkSKW-13" target="E41aTQHjO3BxjqyUkSKW-35" edge="1">
          <mxGeometry width="50" height="50" relative="1" as="geometry">
            <mxPoint x="170" y="-10" as="sourcePoint" />
            <mxPoint x="290" y="70" as="targetPoint" />
            <Array as="points">
              <mxPoint x="200" y="60" />
              <mxPoint x="200" y="40" />
            </Array>
          </mxGeometry>
        </mxCell>
        <mxCell id="E41aTQHjO3BxjqyUkSKW-22" value="pc avec écran couloir" style="rounded=0;whiteSpace=wrap;html=1;" parent="E41aTQHjO3BxjqyUkSKW-8" vertex="1">
          <mxGeometry x="50" y="120" width="120" height="60" as="geometry" />
        </mxCell>
        <mxCell id="E41aTQHjO3BxjqyUkSKW-35" value="matériel" style="rounded=0;whiteSpace=wrap;html=1;" parent="E41aTQHjO3BxjqyUkSKW-8" vertex="1">
          <mxGeometry x="310" y="10" width="120" height="60" as="geometry" />
        </mxCell>
        <mxCell id="E41aTQHjO3BxjqyUkSKW-36" value="" style="endArrow=classic;startArrow=classic;html=1;rounded=0;exitX=0.5;exitY=0;exitDx=0;exitDy=0;entryX=1;entryY=0.5;entryDx=0;entryDy=0;" parent="E41aTQHjO3BxjqyUkSKW-8" source="E41aTQHjO3BxjqyUkSKW-12" target="E41aTQHjO3BxjqyUkSKW-13" edge="1">
          <mxGeometry width="50" height="50" relative="1" as="geometry">
            <mxPoint x="260" y="120" as="sourcePoint" />
            <mxPoint x="310" y="70" as="targetPoint" />
            <Array as="points">
              <mxPoint x="280" y="100" />
              <mxPoint x="200" y="100" />
              <mxPoint x="200" y="60" />
            </Array>
          </mxGeometry>
        </mxCell>
        <mxCell id="E41aTQHjO3BxjqyUkSKW-19" value="réseaux sans fil" style="text;html=1;align=center;verticalAlign=middle;whiteSpace=wrap;rounded=0;" parent="E41aTQHjO3BxjqyUkSKW-8" vertex="1">
          <mxGeometry x="450" y="120" width="60" height="30" as="geometry" />
        </mxCell>
        <mxCell id="E41aTQHjO3BxjqyUkSKW-16" value="" style="endArrow=classic;startArrow=classic;html=1;rounded=0;entryX=0.5;entryY=1;entryDx=0;entryDy=0;exitX=0.75;exitY=0;exitDx=0;exitDy=0;" parent="1" source="E41aTQHjO3BxjqyUkSKW-38" target="E41aTQHjO3BxjqyUkSKW-8" edge="1">
          <mxGeometry width="50" height="50" relative="1" as="geometry">
            <mxPoint x="550" y="610" as="sourcePoint" />
            <mxPoint x="380" y="590" as="targetPoint" />
            <Array as="points">
              <mxPoint x="628" y="560" />
              <mxPoint x="440" y="560" />
            </Array>
          </mxGeometry>
        </mxCell>
        <mxCell id="E41aTQHjO3BxjqyUkSKW-17" value="Ethernet" style="text;html=1;align=center;verticalAlign=middle;whiteSpace=wrap;rounded=0;" parent="1" vertex="1">
          <mxGeometry x="505" y="540" width="60" height="30" as="geometry" />
        </mxCell>
        <mxCell id="E41aTQHjO3BxjqyUkSKW-23" value="" style="endArrow=classic;startArrow=classic;html=1;rounded=0;entryX=0;entryY=0.5;entryDx=0;entryDy=0;exitX=0.5;exitY=1;exitDx=0;exitDy=0;" parent="1" source="E41aTQHjO3BxjqyUkSKW-22" target="E41aTQHjO3BxjqyUkSKW-38" edge="1">
          <mxGeometry width="50" height="50" relative="1" as="geometry">
            <mxPoint x="468" y="890" as="sourcePoint" />
            <mxPoint x="450" y="640" as="targetPoint" />
            <Array as="points">
              <mxPoint x="230" y="665" />
            </Array>
          </mxGeometry>
        </mxCell>
        <mxCell id="E41aTQHjO3BxjqyUkSKW-24" value="HDMI" style="text;html=1;align=center;verticalAlign=middle;whiteSpace=wrap;rounded=0;" parent="1" vertex="1">
          <mxGeometry x="190" y="615" width="60" height="30" as="geometry" />
        </mxCell>
        <mxCell id="E41aTQHjO3BxjqyUkSKW-37" value="Ethernet" style="text;html=1;align=center;verticalAlign=middle;whiteSpace=wrap;rounded=0;" parent="1" vertex="1">
          <mxGeometry x="190" y="585" width="60" height="30" as="geometry" />
        </mxCell>
        <mxCell id="E41aTQHjO3BxjqyUkSKW-38" value="" style="swimlane;startSize=0;" parent="1" vertex="1">
          <mxGeometry x="350" y="600" width="370" height="130" as="geometry" />
        </mxCell>
        <mxCell id="E41aTQHjO3BxjqyUkSKW-40" value="environnement exterieur" style="text;html=1;align=center;verticalAlign=middle;resizable=0;points=[];autosize=1;strokeColor=none;fillColor=none;" parent="E41aTQHjO3BxjqyUkSKW-38" vertex="1">
          <mxGeometry width="150" height="30" as="geometry" />
        </mxCell>
        <mxCell id="E41aTQHjO3BxjqyUkSKW-41" value="aide labo" style="shape=umlActor;verticalLabelPosition=bottom;verticalAlign=top;html=1;outlineConnect=0;" parent="E41aTQHjO3BxjqyUkSKW-38" vertex="1">
          <mxGeometry x="290" y="30" width="30" height="60" as="geometry" />
        </mxCell>
      </root>
    </mxGraphModel>
  </diagram>
</mxfile>
